{
  "asset": {
    "generator": "Khronos glTF Blender I/O v1.6.16",
    "version": "2.0"
  },
  "scene": 0,
  "scenes": [
    {
      "name": "Scene",
      "nodes": [0, 1, 2]
    }
  ],
  "nodes": [
    {
      "mesh": 0,
      "name": "bird",
      "rotation": [0.7230037450790405, 0, 0, -0.6908441185951233]
    },
    {
      "mesh": 1,
      "name": "bird001",
      "rotation": [
        0.6869287490844727, -0.2154974490404129, -0.22552911937236786,
        -0.6563737392425537
      ],
      "translation": [
        0.5054600834846497, -0.6276118159294128, -0.17934425175189972
      ]
    },
    {
      "mesh": 2,
      "name": "bird002",
      "rotation": [
        0.6899265646934509, 0.2065686583518982, 0.21618469059467316,
        -0.6592382192611694
      ],
      "translation": [
        -0.5047128796577454, -0.6276117563247681, -0.17934425175189972
      ]
    }
  ],
  "animations": [
    {
      "channels": [
        {
          "sampler": 0,
          "target": {
            "node": 1,
            "path": "translation"
          }
        },
        {
          "sampler": 1,
          "target": {
            "node": 1,
            "path": "rotation"
          }
        },
        {
          "sampler": 2,
          "target": {
            "node": 1,
            "path": "scale"
          }
        }
      ],
      "name": "bird.001Action",
      "samplers": [
        {
          "input": 12,
          "interpolation": "LINEAR",
          "output": 13
        },
        {
          "input": 12,
          "interpolation": "LINEAR",
          "output": 14
        },
        {
          "input": 12,
          "interpolation": "LINEAR",
          "output": 15
        }
      ]
    },
    {
      "channels": [
        {
          "sampler": 0,
          "target": {
            "node": 2,
            "path": "rotation"
          }
        },
        {
          "sampler": 1,
          "target": {
            "node": 2,
            "path": "translation"
          }
        },
        {
          "sampler": 2,
          "target": {
            "node": 2,
            "path": "scale"
          }
        }
      ],
      "name": "bird.002Action",
      "samplers": [
        {
          "input": 12,
          "interpolation": "LINEAR",
          "output": 16
        },
        {
          "input": 12,
          "interpolation": "LINEAR",
          "output": 17
        },
        {
          "input": 12,
          "interpolation": "LINEAR",
          "output": 18
        }
      ]
    }
  ],
  "materials": [
    {
      "alphaMode": "BLEND",
      "doubleSided": true,
      "name": "initialShadingGroup",
      "pbrMetallicRoughness": {
        "baseColorFactor": [0.5, 0.5, 0.5, 1],
        "metallicFactor": 0,
        "roughnessFactor": 0.858578622341156
      }
    }
  ],
  "meshes": [
    {
      "name": "bird",
      "primitives": [
        {
          "attributes": {
            "POSITION": 0,
            "NORMAL": 1,
            "TEXCOORD_0": 2
          },
          "indices": 3,
          "material": 0
        }
      ]
    },
    {
      "name": "bird.001",
      "primitives": [
        {
          "attributes": {
            "POSITION": 4,
            "NORMAL": 5,
            "TEXCOORD_0": 6
          },
          "indices": 7,
          "material": 0
        }
      ]
    },
    {
      "name": "bird.002",
      "primitives": [
        {
          "attributes": {
            "POSITION": 8,
            "NORMAL": 9,
            "TEXCOORD_0": 10
          },
          "indices": 11,
          "material": 0
        }
      ]
    }
  ],
  "accessors": [
    {
      "bufferView": 0,
      "componentType": 5126,
      "count": 157,
      "max": [0.8417800664901733, 0.4522070586681366, 0.9097766876220703],
      "min": [-0.846208930015564, -0.4622231125831604, -2.3616323471069336],
      "type": "VEC3"
    },
    {
      "bufferView": 1,
      "componentType": 5126,
      "count": 157,
      "type": "VEC3"
    },
    {
      "bufferView": 2,
      "componentType": 5126,
      "count": 157,
      "type": "VEC2"
    },
    {
      "bufferView": 3,
      "componentType": 5123,
      "count": 408,
      "type": "SCALAR"
    },
    {
      "bufferView": 4,
      "componentType": 5126,
      "count": 48,
      "max": [1.4544568061828613, 0.07563446462154388, 0.43777740001678467],
      "min": [0, -0.07563455402851105, -0.5252693891525269],
      "type": "VEC3"
    },
    {
      "bufferView": 5,
      "componentType": 5126,
      "count": 48,
      "type": "VEC3"
    },
    {
      "bufferView": 6,
      "componentType": 5126,
      "count": 48,
      "type": "VEC2"
    },
    {
      "bufferView": 7,
      "componentType": 5123,
      "count": 108,
      "type": "SCALAR"
    },
    {
      "bufferView": 8,
      "componentType": 5126,
      "count": 48,
      "max": [0, 0.07563446462154388, 0.43777725100517273],
      "min": [-1.454458236694336, -0.07563455402851105, -0.5252694487571716],
      "type": "VEC3"
    },
    {
      "bufferView": 9,
      "componentType": 5126,
      "count": 48,
      "type": "VEC3"
    },
    {
      "bufferView": 10,
      "componentType": 5126,
      "count": 48,
      "type": "VEC2"
    },
    {
      "bufferView": 11,
      "componentType": 5123,
      "count": 108,
      "type": "SCALAR"
    },
    {
      "bufferView": 12,
      "componentType": 5126,
      "count": 12,
      "max": [0.5],
      "min": [0.041666666666666664],
      "type": "SCALAR"
    },
    {
      "bufferView": 13,
      "componentType": 5126,
      "count": 12,
      "type": "VEC3"
    },
    {
      "bufferView": 14,
      "componentType": 5126,
      "count": 12,
      "type": "VEC4"
    },
    {
      "bufferView": 15,
      "componentType": 5126,
      "count": 12,
      "type": "VEC3"
    },
    {
      "bufferView": 16,
      "componentType": 5126,
      "count": 12,
      "type": "VEC4"
    },
    {
      "bufferView": 17,
      "componentType": 5126,
      "count": 12,
      "type": "VEC3"
    },
    {
      "bufferView": 18,
      "componentType": 5126,
      "count": 12,
      "type": "VEC3"
    }
  ],
  "bufferViews": [
    {
      "buffer": 0,
      "byteLength": 1884,
      "byteOffset": 0
    },
    {
      "buffer": 0,
      "byteLength": 1884,
      "byteOffset": 1884
    },
    {
      "buffer": 0,
      "byteLength": 1256,
      "byteOffset": 3768
    },
    {
      "buffer": 0,
      "byteLength": 816,
      "byteOffset": 5024
    },
    {
      "buffer": 0,
      "byteLength": 576,
      "byteOffset": 5840
    },
    {
      "buffer": 0,
      "byteLength": 576,
      "byteOffset": 6416
    },
    {
      "buffer": 0,
      "byteLength": 384,
      "byteOffset": 6992
    },
    {
      "buffer": 0,
      "byteLength": 216,
      "byteOffset": 7376
    },
    {
      "buffer": 0,
      "byteLength": 576,
      "byteOffset": 7592
    },
    {
      "buffer": 0,
      "byteLength": 576,
      "byteOffset": 8168
    },
    {
      "buffer": 0,
      "byteLength": 384,
      "byteOffset": 8744
    },
    {
      "buffer": 0,
      "byteLength": 216,
      "byteOffset": 9128
    },
    {
      "buffer": 0,
      "byteLength": 48,
      "byteOffset": 9344
    },
    {
      "buffer": 0,
      "byteLength": 144,
      "byteOffset": 9392
    },
    {
      "buffer": 0,
      "byteLength": 192,
      "byteOffset": 9536
    },
    {
      "buffer": 0,
      "byteLength": 144,
      "byteOffset": 9728
    },
    {
      "buffer": 0,
      "byteLength": 192,
      "byteOffset": 9872
    },
    {
      "buffer": 0,
      "byteLength": 144,
      "byteOffset": 10064
    },
    {
      "buffer": 0,
      "byteLength": 144,
      "byteOffset": 10208
    }
  ],
  "buffers": [
    {
      "byteLength": 10352,
      "uri": "data:application/octet-stream;base64,"
    }
  ]
}
