{
  "asset": {
    "generator": "Khronos glTF Blender I/O v1.6.16",
    "version": "2.0"
  },
  "scene": 0,
  "scenes": [
    {
      "name": "Scene",
      "nodes": [0, 1, 2]
    }
  ],
  "nodes": [
    {
      "name": "Light",
      "rotation": [
        0.16907575726509094, 0.27217137813568115, 0.7558803558349609,
        0.570947527885437
      ],
      "translation": [4.076245307922363, 1.0054539442062378, 5.903861999511719]
    },
    {
      "camera": 0,
      "name": "Camera",
      "rotation": [
        0.483536034822464, 0.20870360732078552, 0.33687159419059753,
        0.7804827094078064
      ],
      "translation": [7.358891487121582, -6.925790786743164, 4.958309173583984]
    },
    {
      "mesh": 0,
      "name": "perch",
      "rotation": [0.7071068286895752, 0, 0, 0.7071067094802856],
      "translation": [0, 0.23122431337833405, 0.9710498452186584]
    }
  ],
  "cameras": [
    {
      "name": "Camera",
      "perspective": {
        "aspectRatio": 1.7777777777777777,
        "yfov": 0.39959648408210363,
        "zfar": 100,
        "znear": 0.10000000149011612
      },
      "type": "perspective"
    }
  ],
  "materials": [
    {
      "doubleSided": true,
      "name": "Default OBJ",
      "pbrMetallicRoughness": {
        "baseColorFactor": [
          0.800000011920929, 0.800000011920929, 0.800000011920929, 1
        ],
        "metallicFactor": 0,
        "roughnessFactor": 0.5
      }
    }
  ],
  "meshes": [
    {
      "name": "birdperchnew",
      "primitives": [
        {
          "attributes": {
            "POSITION": 0,
            "NORMAL": 1,
            "TEXCOORD_0": 2
          },
          "indices": 3,
          "material": 0
        }
      ]
    }
  ],
  "accessors": [
    {
      "bufferView": 0,
      "componentType": 5126,
      "count": 322,
      "max": [0.9937270283699036, 1.3701210021972656, 1.7154619693756104],
      "min": [-1.0171120166778564, -1.0421210527420044, -1.8708679676055908],
      "type": "VEC3"
    },
    {
      "bufferView": 1,
      "componentType": 5126,
      "count": 322,
      "type": "VEC3"
    },
    {
      "bufferView": 2,
      "componentType": 5126,
      "count": 322,
      "type": "VEC2"
    },
    {
      "bufferView": 3,
      "componentType": 5123,
      "count": 792,
      "type": "SCALAR"
    }
  ],
  "bufferViews": [
    {
      "buffer": 0,
      "byteLength": 3864,
      "byteOffset": 0
    },
    {
      "buffer": 0,
      "byteLength": 3864,
      "byteOffset": 3864
    },
    {
      "buffer": 0,
      "byteLength": 2576,
      "byteOffset": 7728
    },
    {
      "buffer": 0,
      "byteLength": 1584,
      "byteOffset": 10304
    }
  ],
  "buffers": [
    {
      "byteLength": 11888,
      "uri": "data:application/octet-stream;base64,"
    }
  ]
}
