{
  "asset": {
    "generator": "Khronos glTF Blender I/O v1.6.16",
    "version": "2.0"
  },
  "scene": 0,
  "scenes": [
    {
      "name": "Scene",
      "nodes": [0, 1, 2, 3, 4]
    }
  ],
  "nodes": [
    {
      "name": "Light",
      "rotation": [
        0.16907575726509094, 0.27217137813568115, 0.7558803558349609,
        0.570947527885437
      ],
      "translation": [4.076245307922363, 1.0054539442062378, 5.903861999511719]
    },
    {
      "camera": 0,
      "name": "Camera",
      "rotation": [
        0.483536034822464, 0.20870360732078552, 0.33687159419059753,
        0.7804827094078064
      ],
      "translation": [7.358891487121582, -6.925790786743164, 4.958309173583984]
    },
    {
      "mesh": 0,
      "name": "birdnew2",
      "rotation": [-0.7071068286895752, 0, 0, 0.7071067094802856],
      "scale": [1, 1, -1]
    },
    {
      "mesh": 1,
      "name": "birdnew2001",
      "rotation": [-0.7071068286895752, 0, 0, 0.7071067094802856],
      "scale": [1, 1, -1]
    },
    {
      "mesh": 2,
      "name": "birdnew2002",
      "rotation": [-0.7071068286895752, 0, 0, 0.7071067094802856],
      "scale": [1, 1, -1]
    }
  ],
  "cameras": [
    {
      "name": "Camera",
      "perspective": {
        "aspectRatio": 1.7777777777777777,
        "yfov": 0.39959648408210363,
        "zfar": 100,
        "znear": 0.10000000149011612
      },
      "type": "perspective"
    }
  ],
  "materials": [
    {
      "alphaMode": "BLEND",
      "doubleSided": true,
      "name": "initialShadingGroup",
      "pbrMetallicRoughness": {
        "baseColorFactor": [0.5, 0.5, 0.5, 1],
        "metallicFactor": 0,
        "roughnessFactor": 0.858578622341156
      }
    }
  ],
  "meshes": [
    {
      "name": "birdnew2",
      "primitives": [
        {
          "attributes": {
            "POSITION": 0,
            "NORMAL": 1,
            "TEXCOORD_0": 2
          },
          "indices": 3,
          "material": 0
        }
      ]
    },
    {
      "name": "birdnew2.001",
      "primitives": [
        {
          "attributes": {
            "POSITION": 4,
            "NORMAL": 5,
            "TEXCOORD_0": 6
          },
          "indices": 7,
          "material": 0
        }
      ]
    },
    {
      "name": "birdnew2.002",
      "primitives": [
        {
          "attributes": {
            "POSITION": 8,
            "NORMAL": 9,
            "TEXCOORD_0": 10
          },
          "indices": 11,
          "material": 0
        }
      ]
    }
  ],
  "accessors": [
    {
      "bufferView": 0,
      "componentType": 5126,
      "count": 48,
      "max": [2.266145944595337, 0.2833299934864044, 0.7455379962921143],
      "min": [0.35173800587654114, 0.13206100463867188, -0.32079601287841797],
      "type": "VEC3"
    },
    {
      "bufferView": 1,
      "componentType": 5126,
      "count": 48,
      "type": "VEC3"
    },
    {
      "bufferView": 2,
      "componentType": 5126,
      "count": 48,
      "type": "VEC2"
    },
    {
      "bufferView": 3,
      "componentType": 5123,
      "count": 108,
      "type": "SCALAR"
    },
    {
      "bufferView": 4,
      "componentType": 5126,
      "count": 48,
      "max": [-0.37346601486206055, 0.2833299934864044, 0.7455379962921143],
      "min": [-2.260305881500244, 0.13206100463867188, -0.32079601287841797],
      "type": "VEC3"
    },
    {
      "bufferView": 5,
      "componentType": 5126,
      "count": 48,
      "type": "VEC3"
    },
    {
      "bufferView": 6,
      "componentType": 5126,
      "count": 48,
      "type": "VEC2"
    },
    {
      "bufferView": 7,
      "componentType": 5123,
      "count": 108,
      "type": "SCALAR"
    },
    {
      "bufferView": 8,
      "componentType": 5126,
      "count": 165,
      "max": [0.9781410098075867, 0.3785879909992218, 1.9111210107803345],
      "min": [-0.9774760007858276, -0.3445340096950531, -1.6657739877700806],
      "type": "VEC3"
    },
    {
      "bufferView": 9,
      "componentType": 5126,
      "count": 165,
      "type": "VEC3"
    },
    {
      "bufferView": 10,
      "componentType": 5126,
      "count": 165,
      "type": "VEC2"
    },
    {
      "bufferView": 11,
      "componentType": 5123,
      "count": 432,
      "type": "SCALAR"
    }
  ],
  "bufferViews": [
    {
      "buffer": 0,
      "byteLength": 576,
      "byteOffset": 0
    },
    {
      "buffer": 0,
      "byteLength": 576,
      "byteOffset": 576
    },
    {
      "buffer": 0,
      "byteLength": 384,
      "byteOffset": 1152
    },
    {
      "buffer": 0,
      "byteLength": 216,
      "byteOffset": 1536
    },
    {
      "buffer": 0,
      "byteLength": 576,
      "byteOffset": 1752
    },
    {
      "buffer": 0,
      "byteLength": 576,
      "byteOffset": 2328
    },
    {
      "buffer": 0,
      "byteLength": 384,
      "byteOffset": 2904
    },
    {
      "buffer": 0,
      "byteLength": 216,
      "byteOffset": 3288
    },
    {
      "buffer": 0,
      "byteLength": 1980,
      "byteOffset": 3504
    },
    {
      "buffer": 0,
      "byteLength": 1980,
      "byteOffset": 5484
    },
    {
      "buffer": 0,
      "byteLength": 1320,
      "byteOffset": 7464
    },
    {
      "buffer": 0,
      "byteLength": 864,
      "byteOffset": 8784
    }
  ],
  "buffers": [
    {
      "byteLength": 9648,
      "uri": "data:application/octet-stream;base64,"
    }
  ]
}
