{
    "asset" : {
        "generator" : "Khronos glTF Blender I/O v1.6.16",
        "version" : "2.0"
    },
    "scene" : 0,
    "scenes" : [
        {
            "name" : "Scene",
            "nodes" : [
                0
            ]
        }
    ],
    "nodes" : [
        {
            "mesh" : 0,
            "name" : "birdperch",
            "rotation" : [
                0.1405300796031952,
                0,
                0,
                0.9900764226913452
            ]
        }
    ],
    "materials" : [
        {
            "alphaMode" : "BLEND",
            "doubleSided" : true,
            "name" : "initialShadingGroup",
            "pbrMetallicRoughness" : {
                "baseColorFactor" : [
                    0.5,
                    0.5,
                    0.5,
                    1
                ],
                "metallicFactor" : 0,
                "roughnessFactor" : 0.858578622341156
            }
        }
    ],
    "meshes" : [
        {
            "name" : "birdperch",
            "primitives" : [
                {
                    "attributes" : {
                        "POSITION" : 0,
                        "NORMAL" : 1,
                        "TEXCOORD_0" : 2
                    },
                    "indices" : 3,
                    "material" : 0
                }
            ]
        }
    ],
    "accessors" : [
        {
            "bufferView" : 0,
            "componentType" : 5126,
            "count" : 274,
            "max" : [
                0.8436620235443115,
                1.4271130561828613,
                0.5475469827651978
            ],
            "min" : [
                -0.8443269729614258,
                -1.6294039487838745,
                -1.0855940580368042
            ],
            "type" : "VEC3"
        },
        {
            "bufferView" : 1,
            "componentType" : 5126,
            "count" : 274,
            "type" : "VEC3"
        },
        {
            "bufferView" : 2,
            "componentType" : 5126,
            "count" : 274,
            "type" : "VEC2"
        },
        {
            "bufferView" : 3,
            "componentType" : 5123,
            "count" : 600,
            "type" : "SCALAR"
        }
    ],
    "bufferViews" : [
        {
            "buffer" : 0,
            "byteLength" : 3288,
            "byteOffset" : 0
        },
        {
            "buffer" : 0,
            "byteLength" : 3288,
            "byteOffset" : 3288
        },
        {
            "buffer" : 0,
            "byteLength" : 2192,
            "byteOffset" : 6576
        },
        {
            "buffer" : 0,
            "byteLength" : 1200,
            "byteOffset" : 8768
        }
    ],
    "buffers" : [
        {
            "byteLength" : 9968,
            "uri" : "data:application/octet-stream;base64,"
        }
    ]
}
